<svg width="108px" height="108px" viewBox="0 0 108 108" version="1.1" xmlns="http://www.w3.org/2000/svg">
    <path fill="#FFFFFF" d="M 54,15
             C 54,15 64,30 70,45
             C 72,40 82,30 82,30
             C 82,30 75,55 75,60
             C 85,60 95,55 95,55
             C 95,55 85,75 80,80
             C 80,80 70,70 65,70
             C 65,70 60,95 54,95
             C 48,95 43,70 43,70
             C 38,70 28,80 28,80
             C 23,75 13,55 13,55
             C 13,55 23,60 33,60
             C 33,55 26,30 26,30
             C 26,30 36,40 38,45
             C 44,30 54,15 54,15 Z" />
</svg>